<?xml version="1.0" standalone="no"?>
<!DOCTYPE svg PUBLIC "-//W3C//DTD SVG 20010904//EN"
 "http://www.w3.org/TR/2001/REC-SVG-20010904/DTD/svg10.dtd">
<svg version="1.0" xmlns="http://www.w3.org/2000/svg"
 width="1024.000000pt" height="1024.000000pt" viewBox="0 0 1024.000000 1024.000000"
 preserveAspectRatio="xMidYMid meet">

<g transform="translate(0.000000,1024.000000) scale(0.100000,-0.100000)"
fill="#000000" stroke="none">
<path d="M6565 8130 c-134 -54 -486 -193 -670 -265 -66 -25 -190 -74 -275
-107 -85 -34 -227 -89 -315 -123 -375 -145 -562 -219 -590 -231 -16 -7 -73
-29 -125 -49 -52 -20 -111 -42 -130 -50 -19 -8 -78 -30 -130 -50 -52 -20 -104
-40 -115 -45 -11 -6 -105 -42 -210 -81 -208 -77 -409 -154 -440 -169 -11 -5
-51 -21 -90 -35 -38 -15 -97 -37 -130 -50 -99 -38 -401 -155 -540 -208 -71
-27 -164 -62 -205 -77 l-75 -27 -3 -1932 -2 -1931 2519 0 2519 0 5 223 c3 122
4 1032 3 2022 l-1 1800 -417 3 -418 2 0 715 0 715 -22 -1 c-13 0 -77 -22 -143
-49z m-327 -1033 l2 -346 -657 -5 c-362 -3 -752 -9 -868 -14 -117 -4 -215 -4
-222 1 -6 5 -9 15 -6 23 6 16 82 54 107 54 8 0 18 5 21 10 3 6 14 10 23 10 9
0 30 7 46 15 15 8 33 15 38 15 8 0 58 20 123 50 11 5 38 16 60 24 22 7 74 26
115 40 41 15 84 31 95 36 65 29 102 44 210 85 66 26 134 51 150 57 17 6 34 15
39 19 6 5 17 9 25 9 9 0 27 6 41 13 14 7 54 24 90 37 36 12 69 27 74 32 6 4
16 8 24 8 7 0 32 8 55 18 23 10 60 26 82 34 64 26 217 88 250 103 46 20 59 24
70 21 6 -2 11 -129 13 -349z m217 -2148 c81 -38 136 -90 178 -169 40 -74 41
-77 40 -175 0 -93 -3 -104 -33 -163 -143 -274 -552 -262 -679 20 -17 38 -21
66 -21 151 0 95 3 109 30 163 16 32 46 76 67 96 49 47 140 96 189 101 70 7
188 -5 229 -24z"/>
</g>
</svg>
